<?xml version="1.0" standalone="no"?>
<!DOCTYPE svg PUBLIC "-//W3C//DTD SVG 20010904//EN"
 "http://www.w3.org/TR/2001/REC-SVG-20010904/DTD/svg10.dtd">
<svg version="1.0" xmlns="http://www.w3.org/2000/svg"
 width="700.000000pt" height="700.000000pt" viewBox="0 0 700.000000 700.000000"
 preserveAspectRatio="xMidYMid meet">
<metadata>
Created by potrace 1.14, written by Peter Selinger 2001-2017
</metadata>
<g transform="translate(0.000000,700.000000) scale(0.100000,-0.100000)"
fill="#000000" stroke="none">
<path d="M274 6501 c-56 -14 -128 -54 -170 -96 -173 -173 -117 -469 108 -570
56 -25 77 -29 195 -33 l133 -5 29 -91 c115 -359 115 -764 1 -1121 l-30 -92
-128 -6 c-156 -6 -218 -26 -295 -97 -79 -72 -112 -149 -112 -260 1 -70 5 -95
27 -142 34 -73 103 -142 176 -176 51 -24 72 -27 200 -32 l143 -5 -76 -64
c-125 -105 -255 -271 -333 -427 -42 -84 -96 -242 -118 -349 -27 -133 -25 -393
4 -532 76 -352 284 -660 583 -859 178 -118 338 -179 582 -219 l37 -6 0 -357
c0 -320 2 -361 18 -392 21 -42 75 -80 114 -80 34 0 38 2 354 171 l241 130 279
-151 c172 -92 290 -150 307 -150 39 0 88 25 112 58 19 26 20 45 23 394 l3 368
2017 2 2017 3 57 23 c81 33 158 106 194 184 25 54 29 75 29 148 -1 70 -5 94
-27 140 -38 81 -89 134 -166 172 -64 32 -72 33 -204 36 l-138 4 -30 96 c-115
373 -115 760 1 1124 l31 97 136 3 c123 3 143 6 193 29 79 37 133 90 171 167
29 59 33 76 33 152 0 76 -3 92 -33 152 -40 81 -111 149 -188 177 -45 17 -78
21 -189 21 l-135 0 129 128 c216 213 331 419 393 705 18 84 22 133 22 277 0
154 -3 189 -26 287 -64 272 -191 496 -387 686 -192 184 -403 298 -669 359
l-97 22 -2755 2 c-1515 1 -2769 -1 -2786 -5z m5521 -733 c200 -68 350 -219
421 -423 25 -70 28 -94 28 -200 0 -103 -4 -131 -28 -202 -53 -163 -178 -308
-330 -382 -156 -76 45 -71 -2649 -71 l-2413 0 35 145 36 145 695 0 c672 0 696
1 727 20 60 36 81 121 46 181 -10 16 -36 38 -58 49 -40 19 -64 20 -713 20
l-672 0 0 95 0 95 338 0 c377 0 384 1 430 70 42 62 16 150 -55 185 -26 13 -87
15 -385 15 l-354 0 -14 68 c-7 37 -23 102 -35 145 l-23 77 2447 -2 2446 -3 80
-27z m373 -2455 c-2 -10 -17 -73 -33 -140 l-29 -123 -341 0 c-201 0 -355 -4
-377 -10 -105 -30 -129 -177 -39 -237 34 -23 37 -23 382 -23 l349 0 0 -100 0
-100 -682 0 c-660 0 -684 -1 -715 -20 -60 -36 -81 -121 -46 -181 10 -16 36
-38 58 -49 40 -19 64 -20 726 -20 l684 0 31 -128 c18 -70 35 -135 39 -144 7
-17 -80 -18 -1744 -18 l-1751 0 0 145 0 145 214 0 c117 0 228 3 246 6 41 9 95
62 103 102 9 43 -8 94 -44 128 l-30 29 -921 3 c-910 2 -921 2 -953 -18 -59
-37 -65 -63 -65 -300 l0 -211 -22 6 c-13 4 -54 22 -93 40 -171 82 -311 262
-351 455 -31 145 -3 319 72 455 45 82 186 214 274 257 145 71 -62 66 2628 67
2312 1 2433 0 2430 -16z m-3948 -1160 c99 -68 78 -210 -34 -241 -81 -23 -166
40 -166 122 0 49 31 103 70 123 36 18 101 16 130 -4z m5 -387 c55 -36 60 -56
63 -252 2 -115 -1 -197 -8 -224 -30 -110 -154 -140 -229 -54 l-31 35 0 212 c0
189 2 215 19 243 37 60 126 80 186 40z"/>
<path d="M2654 5036 c-72 -31 -99 -108 -65 -180 66 -135 265 -78 248 71 -5 50
-35 88 -84 109 -40 17 -59 17 -99 0z"/>
</g>
</svg>
